<svg width="194" height="54" viewBox="0 0 194 54" fill="none" xmlns="http://www.w3.org/2000/svg">
<path d="M82.822 23.31V36H79.294V28.998L76.9 36H73.948L71.536 28.944V36H68.008V23.31H72.274L75.46 31.554L78.574 23.31H82.822ZM89.5283 36.126C88.5203 36.126 87.6143 35.916 86.8103 35.496C86.0183 35.076 85.3943 34.476 84.9383 33.696C84.4823 32.916 84.2543 31.998 84.2543 30.942C84.2543 29.898 84.4823 28.986 84.9383 28.206C85.4063 27.426 86.0363 26.826 86.8283 26.406C87.6323 25.986 88.5383 25.776 89.5463 25.776C90.5543 25.776 91.4543 25.986 92.2463 26.406C93.0503 26.826 93.6803 27.426 94.1363 28.206C94.6043 28.986 94.8383 29.898 94.8383 30.942C94.8383 31.986 94.6043 32.904 94.1363 33.696C93.6803 34.476 93.0503 35.076 92.2463 35.496C91.4423 35.916 90.5363 36.126 89.5283 36.126ZM89.5283 33.066C90.0203 33.066 90.4283 32.886 90.7523 32.526C91.0883 32.154 91.2563 31.626 91.2563 30.942C91.2563 30.258 91.0883 29.736 90.7523 29.376C90.4283 29.016 90.0263 28.836 89.5463 28.836C89.0663 28.836 88.6643 29.016 88.3403 29.376C88.0163 29.736 87.8543 30.258 87.8543 30.942C87.8543 31.638 88.0103 32.166 88.3223 32.526C88.6343 32.886 89.0363 33.066 89.5283 33.066ZM106.606 25.902V36H103.06V34.56C102.76 35.016 102.346 35.388 101.818 35.676C101.29 35.952 100.684 36.09 99.9996 36.09C98.8236 36.09 97.8936 35.706 97.2096 34.938C96.5376 34.158 96.2016 33.102 96.2016 31.77V25.902H99.7116V31.32C99.7116 31.896 99.8616 32.352 100.162 32.688C100.474 33.012 100.882 33.174 101.386 33.174C101.902 33.174 102.31 33.012 102.61 32.688C102.91 32.352 103.06 31.896 103.06 31.32V25.902H106.606ZM115.219 25.812C116.383 25.812 117.307 26.202 117.991 26.982C118.675 27.75 119.017 28.794 119.017 30.114V36H115.489V30.582C115.489 30.006 115.339 29.556 115.039 29.232C114.739 28.896 114.337 28.728 113.833 28.728C113.305 28.728 112.891 28.896 112.591 29.232C112.291 29.556 112.141 30.006 112.141 30.582V36H108.613V25.902H112.141V27.342C112.453 26.886 112.873 26.52 113.401 26.244C113.929 25.956 114.535 25.812 115.219 25.812ZM126.911 32.994V36H125.381C122.801 36 121.511 34.722 121.511 32.166V28.836H120.269V25.902H121.511V23.454H125.057V25.902H126.893V28.836H125.057V32.22C125.057 32.496 125.117 32.694 125.237 32.814C125.369 32.934 125.585 32.994 125.885 32.994H126.911ZM138.177 30.834C138.177 31.11 138.159 31.386 138.123 31.662H131.445C131.481 32.214 131.631 32.628 131.895 32.904C132.171 33.168 132.519 33.3 132.939 33.3C133.527 33.3 133.947 33.036 134.199 32.508H137.961C137.805 33.204 137.499 33.828 137.043 34.38C136.599 34.92 136.035 35.346 135.351 35.658C134.667 35.97 133.911 36.126 133.083 36.126C132.087 36.126 131.199 35.916 130.419 35.496C129.651 35.076 129.045 34.476 128.601 33.696C128.169 32.916 127.953 31.998 127.953 30.942C127.953 29.886 128.169 28.974 128.601 28.206C129.033 27.426 129.633 26.826 130.401 26.406C131.181 25.986 132.075 25.776 133.083 25.776C134.079 25.776 134.961 25.98 135.729 26.388C136.497 26.796 137.097 27.384 137.529 28.152C137.961 28.908 138.177 29.802 138.177 30.834ZM134.577 29.952C134.577 29.52 134.433 29.184 134.145 28.944C133.857 28.692 133.497 28.566 133.065 28.566C132.633 28.566 132.279 28.686 132.003 28.926C131.727 29.154 131.547 29.496 131.463 29.952H134.577ZM143.149 27.684C143.545 27.108 144.025 26.652 144.589 26.316C145.153 25.98 145.759 25.812 146.407 25.812V29.574H145.417C144.649 29.574 144.079 29.724 143.707 30.024C143.335 30.324 143.149 30.846 143.149 31.59V36H139.621V25.902H143.149V27.684ZM149.454 24.966C148.83 24.966 148.326 24.798 147.942 24.462C147.57 24.114 147.384 23.682 147.384 23.166C147.384 22.638 147.57 22.2 147.942 21.852C148.326 21.504 148.83 21.33 149.454 21.33C150.066 21.33 150.558 21.504 150.93 21.852C151.314 22.2 151.506 22.638 151.506 23.166C151.506 23.682 151.314 24.114 150.93 24.462C150.558 24.798 150.066 24.966 149.454 24.966ZM151.2 25.902V36H147.672V25.902H151.2ZM157.907 36.126C156.899 36.126 155.993 35.916 155.189 35.496C154.397 35.076 153.773 34.476 153.317 33.696C152.861 32.916 152.633 31.998 152.633 30.942C152.633 29.898 152.861 28.986 153.317 28.206C153.785 27.426 154.415 26.826 155.207 26.406C156.011 25.986 156.917 25.776 157.925 25.776C158.933 25.776 159.833 25.986 160.625 26.406C161.429 26.826 162.059 27.426 162.515 28.206C162.983 28.986 163.217 29.898 163.217 30.942C163.217 31.986 162.983 32.904 162.515 33.696C162.059 34.476 161.429 35.076 160.625 35.496C159.821 35.916 158.915 36.126 157.907 36.126ZM157.907 33.066C158.399 33.066 158.807 32.886 159.131 32.526C159.467 32.154 159.635 31.626 159.635 30.942C159.635 30.258 159.467 29.736 159.131 29.376C158.807 29.016 158.405 28.836 157.925 28.836C157.445 28.836 157.043 29.016 156.719 29.376C156.395 29.736 156.233 30.258 156.233 30.942C156.233 31.638 156.389 32.166 156.701 32.526C157.013 32.886 157.415 33.066 157.907 33.066ZM168.181 27.684C168.577 27.108 169.057 26.652 169.621 26.316C170.185 25.98 170.791 25.812 171.439 25.812V29.574H170.449C169.681 29.574 169.111 29.724 168.739 30.024C168.367 30.324 168.181 30.846 168.181 31.59V36H164.653V25.902H168.181V27.684Z" fill="white"/>
<path d="M46.4019 13.5C47.5566 11.5 50.4434 11.5 51.5981 13.5L64.5885 36C65.7432 38 64.2998 40.5 61.9904 40.5H36.0096C33.7002 40.5 32.2568 38 33.4115 36L46.4019 13.5Z" fill="#0F829B"/>
<path d="M24.4019 4.5C25.5566 2.5 28.4434 2.5 29.5981 4.5L47.7846 36C48.9393 38 47.4959 40.5 45.1865 40.5H8.81346C6.50406 40.5 5.06069 38 6.21539 36L24.4019 4.5Z" fill="#2EB0CD"/>
</svg>
